Coordinates
version=1
nRows=13
nColumns=36
inDegrees=yes

Units are S.I. units (second, meters, Newtons, ...)
If the header above contains a line with 'inDegrees', this indicates whether rotational values are in degrees (yes) or radians (no).

endheader
time	pelvis_tilt	pelvis_list	pelvis_rotation	pelvis_tx	pelvis_ty	pelvis_tz	hip_flexion_r	hip_adduction_r	hip_rotation_r	knee_angle_r	knee_angle_r_beta	ankle_angle_r	subtalar_angle_r	mtp_angle_r	hip_flexion_l	hip_adduction_l	hip_rotation_l	knee_angle_l	knee_angle_l_beta	ankle_angle_l	subtalar_angle_l	mtp_angle_l	lumbar_extension	lumbar_bending	lumbar_rotation	arm_flex_r	arm_add_r	arm_rot_r	elbow_flex_r	pro_sup_r	arm_flex_l	arm_add_l	arm_rot_l	elbow_flex_l	pro_sup_l
      1.43333330	    -21.75956673	     -0.81938481	     -3.23578481	      0.01802140	      1.17262952	      0.16963180	     31.61259615	      3.85912556	      2.67054135	     27.35772104	      0.47748231	     17.60236507	    -18.37438477	     -7.49999987	     33.73457067	     -4.96922711	     -6.41913582	     35.39934983	      0.61783521	     20.91306429	     -9.89499905	     -7.49999987	    -18.74303511	     -0.04139752	     -1.63799058	     -7.58715082	     -8.46812651	     31.78528204	     10.41556549	     44.53004377	    -16.27637091	    -16.16651947	     -2.92752945	     26.40042619	     64.11834130
      1.45000000	    -21.95412053	     -0.94017757	     -3.20948280	      0.01638266	      1.15903086	      0.16924264	     32.47139897	      4.03088877	      2.78805359	     29.28254088	      0.51107675	     19.13369632	    -18.89176270	     -7.49999987	     35.19299541	     -5.09430648	     -5.63187175	     38.29164784	      0.66831533	     22.06092075	    -10.95045819	     -7.49999987	    -19.98225106	     -0.27439814	     -1.95696053	     -0.59401046	     -8.53374508	     31.51522516	     14.67634683	     45.45858203	    -10.49112083	    -16.59151752	     -2.96642243	     29.50973765	     64.20465766
      1.46666670	    -21.90060272	     -1.14868877	     -2.93425958	      0.02156737	      1.15051798	      0.16664849	     32.92580560	      4.15050154	      2.90995773	     31.16331370	      0.54390243	     20.43619199	    -19.67881970	     -7.49999987	     36.16626821	     -5.02643047	     -4.60503417	     40.88688492	      0.71361076	     23.14459624	    -11.92739868	     -7.49999987	    -21.39927919	     -0.31704762	     -2.30257863	      6.40134895	     -7.81887184	     31.14690769	     18.68795091	     46.58020138	     -3.88233814	    -16.40793967	     -2.74247141	     32.56899331	     64.52244970
      1.48333330	    -21.70209966	     -1.47207543	     -2.36080419	      0.03183982	      1.14697889	      0.16678775	     32.78479942	      4.41227748	      3.27124101	     32.38584581	      0.56523964	     20.70682412	    -22.10397756	     -7.49999987	     36.60228847	     -4.80062504	     -3.20780281	     43.31958160	      0.75606933	     23.84982681	    -13.15995001	     -7.49999987	    -23.08534880	      0.42468812	     -0.91018365	     11.14633995	     -6.51266863	     13.71083613	     25.86884076	     74.78532827	      5.95762207	    -15.29332198	     -1.58615876	     34.82935006	     85.18388839
      1.50000000	    -21.32241747	     -1.66260175	     -1.84839697	      0.04889149	      1.15044372	      0.17608869	     31.90863253	      4.98817225	      4.04096016	     33.00481948	      0.57604277	     21.35313649	    -23.87775257	     -7.49999987	     35.81574466	     -4.85147085	     -2.39617109	     44.23030374	      0.77196443	     24.71059467	    -13.24883201	     -7.49999987	    -24.61157342	      0.19019120	     -0.86310949	     18.02449652	     -5.19908729	     15.85462408	     30.62818519	     76.90928332	     13.35691944	    -15.98726618	      4.08528271	     41.23518371	     86.84578353
      1.51666670	    -21.79747085	     -1.50246398	     -2.14492475	      0.05524308	      1.15349323	      0.18480031	     32.24901044	      5.60077084	      4.76483743	     34.05840773	      0.59443135	     22.10069518	    -24.75678004	     -7.49999987	     35.13778067	     -5.02716858	     -2.13018032	     43.87166297	      0.76570497	     24.91930705	    -13.08185918	     -7.49999987	    -24.82373473	     -0.57415155	     -0.21483954	     26.18189619	     -3.67158953	     16.68064917	     35.37106371	     79.75713320	     22.46568910	    -16.15792889	      9.80119964	     46.31966153	     89.29610214
      1.53333330	    -22.45756507	     -1.21093515	     -2.61643478	      0.06209283	      1.15089820	      0.18312449	     32.39255084	      6.15095471	      5.71343140	     34.59901488	      0.60386673	     22.66696564	    -25.30938580	     -7.49999987	     34.56030380	     -4.93439884	     -1.84140985	     43.10099100	      0.75225420	     24.88957784	    -13.06581595	     -7.49999987	    -24.07094742	     -1.50557176	      1.36825531	     31.93567399	     -3.15565930	     12.57756288	     46.53586845	     85.66812159	     33.08679589	    -15.96929334	     17.88976601	     52.76556577	     93.50238703
      1.55000000	    -22.61746708	     -0.99497309	     -2.46880377	      0.07188787	      1.15032811	      0.17720452	     31.68360004	      6.23446952	      6.35874491	     34.59186542	      0.60374195	     22.89083281	    -26.19292576	     -7.49999987	     33.43033418	     -4.57827455	     -1.72388797	     42.36435629	      0.73939750	     24.50803731	    -13.36983530	     -7.49999987	    -23.78098387	     -1.98915738	      1.89611211	     39.29763017	     -3.13436295	     11.83217464	     55.99124422	     90.35852900	     43.78044548	    -13.35242330	     23.13473928	     58.96181458	     95.14249350
      1.56666670	    -22.95362370	     -1.05386501	     -2.40942667	      0.07447681	      1.14658325	      0.18339897	     31.20838718	      6.65216923	      6.95375728	     34.21926694	      0.59723888	     23.18589303	    -27.20498399	     -7.49999987	     33.32335741	     -4.51720169	     -1.09504823	     42.35890245	      0.73930232	     24.50057485	    -13.82541813	     -7.49999987	    -22.30247923	     -2.30181657	      1.54122901	     47.56845877	     -1.67167800	     11.53808362	     59.84053489	     90.82924315	     51.48411252	    -10.78177485	     25.07478972	     62.94328889	     95.40244718
      1.58333330	    -23.11408041	     -0.79836723	     -2.54424623	      0.09972580	      1.13904539	      0.17229313	     30.24691487	      6.43099380	      7.74545491	     34.54761962	      0.60296971	     23.37753234	    -28.15178775	     -7.49999987	     32.20604433	     -3.83627292	     -0.81422024	     41.84604768	      0.73035131	     25.27614079	    -13.71761219	     -7.49999987	    -19.44426962	     -2.64415444	      1.48375459	     54.62936391	     -2.03937821	     11.04561278	     65.66328168	     91.31550900	     54.92678941	     -8.49787779	     24.13608701	     69.03727935	     95.11467739
      1.60000000	    -23.50513490	     -0.66337853	     -2.68243939	      0.10243600	      1.14392194	      0.17321781	     29.45945921	      6.25054434	      8.38090373	     34.00484350	      0.59349648	     23.51024132	    -28.87712364	     -7.49999987	     31.62983357	     -3.13076247	     -0.16465714	     40.97257739	      0.71510638	     25.67965780	    -14.47819767	     -7.49999987	    -16.78719746	     -2.61813502	      1.40146805	     63.91515526	     -1.43650016	     12.36732140	     67.05023126	     93.79272996	     59.95825539	     -5.05563218	     20.69513603	     73.05844458	     95.19708186
      1.61666670	    -23.61941774	     -0.45447776	     -3.33467943	      0.11259655	      1.14377996	      0.17471638	     28.26887543	      6.10319940	      9.33151452	     32.77490717	      0.57203004	     23.34760484	    -28.69002253	     -7.49999987	     30.40304002	     -2.81439297	     -0.01607420	     39.58300684	      0.69085380	     25.68444314	    -14.70541498	     -7.49999987	    -14.89990871	     -2.82606817	      1.62976112	     74.95967008	     -1.89147649	     15.17561706	     69.54935004	     93.98060808	     69.80024496	     -4.52825185	     22.86157352	     74.45642398	     95.03666712
      1.63333330	    -24.04800160	     -0.11313378	     -3.98573002	      0.12480987	      1.14588136	      0.17136400	     27.31247256	      5.69482436	     10.21898693	     31.16494147	      0.54393084	     23.50706781	    -27.55583975	     -7.49999987	     29.71920685	     -2.36101235	     -0.36946624	     38.51064239	      0.67213751	     26.12446833	    -14.09926659	     -7.49999987	    -12.56459365	     -3.10627853	      1.33415445	     81.52825833	     -5.27299545	     18.02223784	     73.21334370	     92.51215497	     77.19687688	     -5.07821049	     26.67578453	     77.98853611	     90.65162552
